<svg width="740" height="599" viewBox="0 0 740 599" fill="none" xmlns="http://www.w3.org/2000/svg">
<g clip-path="url(#clip0)">
<path d="M189.335 186.437C191.526 187.344 209.601 205.03 229.319 218.18C249.037 231.331 238.904 225.436 261.909 239.947C263.651 241.046 239.726 246.749 239.726 246.749C239.726 246.749 232.076 245.358 218.931 234.928C205.785 224.499 186.597 209.473 186.597 209.473L189.335 186.437Z" fill="#D40000"/>
<path d="M263.826 241.081C260.54 241.534 245.751 250.15 245.751 250.15C245.751 250.15 220.282 240.854 225.759 241.761C231.236 242.668 243.286 243.802 243.286 243.802L241.095 232.465L253.693 238.133L256.979 228.837L263.826 241.081Z" fill="#00D455"/>
<path d="M257.801 259.83C250.511 259.83 244.602 255.09 244.602 249.243C244.602 243.397 250.511 238.657 257.801 238.657C265.091 238.657 271 243.397 271 249.243C271 255.09 265.091 259.83 257.801 259.83Z" fill="#FFD2B1"/>
<path d="M81.6645 182.516C79.4736 183.423 61.3988 201.109 41.6807 214.259C21.9627 227.41 32.0955 221.515 9.09115 236.026C7.34844 237.125 31.2739 242.828 31.2739 242.828C31.2739 242.828 38.9237 241.437 52.069 231.008C65.2144 220.578 84.4031 205.552 84.4031 205.552L81.6645 182.516Z" fill="#D40000"/>
<path d="M7.17426 237.16C10.4606 237.613 25.2491 246.229 25.2491 246.229C25.2491 246.229 50.7183 236.933 45.2411 237.84C39.7638 238.747 27.7139 239.881 27.7139 239.881L29.9048 228.544L17.3071 234.212L14.0208 224.916L7.17426 237.16Z" fill="#00D455"/>
<path d="M13.1992 255.909C20.489 255.909 26.3985 251.169 26.3985 245.322C26.3985 239.476 20.489 234.736 13.1992 234.736C5.9095 234.736 0 239.476 0 245.322C0 251.169 5.9095 255.909 13.1992 255.909Z" fill="#FFD2B1"/>
<path d="M127.258 287.722C123.972 288.176 90.5605 287.722 93.2991 287.269C96.0377 286.815 107.54 372.522 107.54 372.522L120.685 371.615C120.685 371.615 129.449 288.176 127.258 287.722Z" fill="#D40000"/>
<path d="M122.757 351.117C122.427 354.467 122.175 357.042 121.902 359.747C116.574 359.935 110.798 360.161 105.878 360.44C105.51 357.789 105.164 355.359 104.701 352.091C110.481 351.771 116.296 351.451 122.757 351.117V351.117Z" fill="#FFD5D5"/>
<path d="M101.716 331.552C108.97 332.061 116.552 332.597 124.473 333.21C124.234 335.779 123.997 338.284 123.759 340.778H103.073C102.629 337.734 102.185 334.689 101.716 331.552V331.552Z" fill="#FFD5D5"/>
<path d="M126.094 315.017C125.922 317.079 125.715 319.295 125.528 321.441L100.448 323.3C100.073 320.868 99.6985 318.421 99.3248 316.082C104.496 315.854 116.819 315.316 126.094 315.017V315.017Z" fill="#FFD5D5"/>
<path d="M127.278 298.876C127.164 300.802 126.992 303.124 126.827 305.393L97.7491 306.464C97.286 303.754 96.8427 301.31 96.4156 299.039C104.137 299.03 116.435 299.009 127.278 298.876L127.278 298.876Z" fill="#FFD5D5"/>
<path d="M128.948 367.65C126.757 367.877 101.014 367.65 101.014 367.65C101.014 367.65 105.734 373.657 105.396 378.08C105.058 382.503 104.027 386.47 88.9642 385.336C73.9018 384.202 73.9018 373.772 78.5575 369.237C68.4246 369.01 53.0884 393.499 79.1052 393.725C128.787 394.156 132.234 393.952 133.33 393.952C134.425 393.952 129.77 378.987 129.77 378.987L128.948 367.65Z" fill="#00D455"/>
<path d="M152.595 287.722C155.881 288.176 189.292 287.722 186.554 287.269C183.815 286.815 172.313 372.522 172.313 372.522L159.168 371.615C159.168 371.615 150.404 288.176 152.595 287.722Z" fill="#D40000"/>
<path d="M157.096 351.117C157.426 354.467 157.678 357.042 157.951 359.747C163.279 359.935 169.055 360.161 173.975 360.44C174.343 357.789 174.688 355.359 175.151 352.091C169.372 351.771 163.557 351.451 157.096 351.117Z" fill="#FFD5D5"/>
<path d="M178.137 331.552C170.883 332.061 163.3 332.597 155.379 333.21C155.618 335.779 155.855 338.284 156.094 340.778H176.78C177.223 337.734 177.668 334.689 178.137 331.552V331.552Z" fill="#FFD5D5"/>
<path d="M132.037 129.006C171.177 129.006 201.531 175.022 186.512 225.029C170.628 277.918 252.064 292.793 135.779 293.843C22.1498 294.87 106.608 282 86.8904 230.47C68.0931 181.347 92.8957 129.006 132.037 129.006Z" fill="#D40000"/>
<path d="M132.037 129.006C171.177 129.006 201.531 175.022 186.512 225.029C170.628 277.918 252.064 292.793 135.779 293.843C22.1498 294.87 106.608 282 86.8904 230.47C68.0931 181.347 92.8957 129.006 132.037 129.006Z" fill="#D40000"/>
<path d="M132.036 129.006C171.177 129.006 201.531 175.022 186.512 225.029C170.628 277.918 252.07 294.113 135.778 293.843C25.6354 293.587 106.608 282 86.8903 230.47C68.0931 181.347 92.8956 129.006 132.036 129.006Z" fill="#D40000"/>
<path d="M94.5363 164.604C95.3579 164.604 68.7932 172.54 49.8968 174.354C49.0807 174.432 94.5363 186.371 94.5363 186.371L105.491 221.288L135.889 193.173C135.889 193.173 170.396 222.876 168.753 222.195C167.11 221.515 176.695 188.638 176.695 188.638C176.695 188.638 205.45 185.464 218.048 176.848C190.662 172.993 169.848 166.191 169.848 166.191L94.5363 164.604Z" fill="#00D455"/>
<path d="M226.14 118.897C226.14 135.947 216.287 152.299 198.748 164.355C181.209 176.411 157.421 183.184 132.618 183.184C107.814 183.184 84.0258 176.411 66.4869 164.355C48.9479 152.299 39.0947 135.947 39.0947 118.897C39.0947 101.847 48.9479 85.4954 66.4869 73.4392C84.0258 61.3831 107.814 54.61 132.618 54.61C157.421 54.61 181.209 61.3831 198.748 73.4392C216.287 85.4954 226.14 101.847 226.14 118.897V118.897Z" fill="#FFD2B1"/>
<path d="M83.3253 132.746C87.7413 132.746 91.3212 129.875 91.3212 126.333C91.3212 122.791 87.7413 119.92 83.3253 119.92C78.9093 119.92 75.3295 122.791 75.3295 126.333C75.3295 129.875 78.9093 132.746 83.3253 132.746Z" fill="black"/>
<path d="M174.341 132.746C178.757 132.746 182.336 129.875 182.336 126.333C182.336 122.791 178.757 119.92 174.341 119.92C169.925 119.92 166.345 122.791 166.345 126.333C166.345 129.875 169.925 132.746 174.341 132.746Z" fill="black"/>
<path d="M145.68 161.284H115.471C115.471 161.284 119.731 151.665 130.576 151.665C141.42 151.665 145.68 161.284 145.68 161.284V161.284Z" fill="#AA0000"/>
<path d="M109.662 81.4415C111.211 80.8002 150.328 61.8816 166.982 75.3491C183.636 88.8166 114.309 128.257 115.858 127.616C122.708 114.999 136.351 85.1243 109.662 81.4415V81.4415Z" fill="#6C5353"/>
<path d="M151.687 0.00847243C66.3287 0.801985 36.3816 57.334 36.482 100.063C37.8193 96.3335 39.3374 92.6467 41.1095 90.2582C42.7064 92.9878 46.8221 96.8836 50.9384 100.402C52.073 101.214 53.3793 102.217 54.6654 103.245C57.4733 105.49 60.0872 107.734 60.0872 107.734L71.7065 81.2827L102.691 99.3987L114.89 74.8695L132.513 98.4354L151.296 73.5851C151.296 73.5851 169.306 99.0772 170.468 100.36C170.613 100.52 171.036 100.485 171.666 100.3C182.609 96.3664 189.511 87.7212 199.32 79.9984L201.838 105.491L219.073 87.2144L225.066 97.725C218.687 64.8473 191.546 31.7622 206.553 26.5061C226.344 19.5746 220.768 45.8581 220.768 45.8581C238.812 46.6024 246.61 9.21788 178.9 1.50186C169.261 0.403463 160.199 -0.0706043 151.687 0.00852398V0.00847243Z" fill="#D40000"/>
<path d="M225.066 97.725L219.073 87.2138L201.838 105.491L199.321 79.9975C189.512 87.7204 182.609 96.3664 171.666 100.3C171.036 100.485 170.613 100.52 170.468 100.36C169.306 99.0771 151.296 73.5852 151.296 73.5852L132.513 98.4353L114.891 74.8687L102.691 99.3986L71.7067 81.2823L60.0872 107.734C56.0497 104.702 44.113 95.3947 41.1087 90.2591C37.2363 95.4783 38.5839 95.4856 36.482 100.063C36.6477 102.157 35.0382 107.389 39.2048 121.036C39.6486 120.714 39.4378 120.792 39.9832 120.426C41.6232 119.327 43.7323 118.043 46.3693 116.666C49.0063 115.288 52.1726 113.817 55.9246 112.344C59.6765 110.871 64.0146 109.396 68.9996 108.009C73.9845 106.622 79.6144 105.322 85.9504 104.202C92.2864 103.082 99.3279 102.143 107.133 101.473C114.938 100.802 123.508 100.4 132.9 100.36C142.292 100.32 150.962 100.637 158.947 101.22C166.932 101.803 174.231 102.653 180.876 103.683C187.521 104.713 193.511 105.92 198.881 107.219C204.252 108.519 209.004 109.909 213.168 111.301C217.331 112.694 220.906 114.091 223.929 115.401C224.775 115.768 225.252 116.053 226.012 116.404C226.378 112.477 226.092 100.973 225.066 97.725V97.725Z" fill="#00D455"/>
<path d="M184.398 240.631L89.797 242.384C90.4808 249.046 89.4393 254.901 87.6559 260.06H189.156C186.664 254.462 184.64 248.033 184.398 240.631Z" fill="black"/>
<path d="M122.055 237.44C124.813 234.996 151.048 235.31 153.62 237.44C156.378 239.724 156.959 261.931 153.62 264.695C150.281 267.46 125.588 267.46 122.055 264.695C118.522 261.931 119.483 239.718 122.055 237.44V237.44Z" fill="#FFCC00"/>
<path d="M129.128 243.959C130.616 242.64 144.767 242.81 146.155 243.959C147.643 245.191 147.956 257.17 146.155 258.661C144.354 260.153 131.033 260.153 129.128 258.661C127.222 257.17 127.74 245.188 129.128 243.959Z" fill="black"/>
<path d="M153.759 315.017C153.931 317.079 154.137 319.295 154.325 321.441L179.404 323.3C179.78 320.868 180.154 318.421 180.528 316.082C175.357 315.854 163.034 315.316 153.759 315.017V315.017Z" fill="#FFD5D5"/>
<path d="M152.574 298.876C152.688 300.802 152.861 303.124 153.026 305.393L182.103 306.464C182.566 303.754 183.01 301.31 183.437 299.039C175.715 299.031 163.417 299.01 152.574 298.876V298.876Z" fill="#FFD5D5"/>
<path d="M150.905 367.65C153.096 367.877 178.839 367.65 178.839 367.65C178.839 367.65 174.118 373.657 174.457 378.08C174.795 382.503 175.826 386.47 190.889 385.336C205.951 384.202 205.951 373.772 201.295 369.237C211.428 369.01 226.764 393.499 200.748 393.725C151.065 394.156 147.618 393.952 146.523 393.952C145.428 393.952 150.083 378.987 150.083 378.987L150.905 367.65Z" fill="#00D455"/>
</g>
<g clip-path="url(#clip1)">
<path d="M656.226 314.151C658.473 315.168 677.015 335.008 697.243 349.761C717.47 364.514 707.075 357.9 730.674 374.179C732.462 375.412 707.918 381.81 707.918 381.81C707.918 381.81 700.071 380.25 686.586 368.549C673.101 356.849 653.417 339.993 653.417 339.993L656.226 314.151Z" fill="#20AB58"/>
<path d="M732.641 375.451C729.269 375.96 714.099 385.625 714.099 385.625C714.099 385.625 687.972 375.197 693.59 376.214C699.209 377.232 711.57 378.503 711.57 378.503L709.323 365.785L722.246 372.144L725.617 361.716L732.641 375.451Z" fill="#00D455"/>
<path d="M726.46 396.484C718.982 396.484 712.92 391.167 712.92 384.608C712.92 378.049 718.982 372.732 726.46 372.732C733.938 372.732 740 378.049 740 384.608C740 391.167 733.938 396.484 726.46 396.484Z" fill="#F6B88D"/>
<path d="M545.774 309.752C543.526 310.769 524.985 330.609 504.757 345.362C484.53 360.115 494.925 353.502 471.326 369.781C469.538 371.014 494.082 377.411 494.082 377.411C494.082 377.411 501.929 375.851 515.414 364.151C528.899 352.45 548.583 335.594 548.583 335.594L545.774 309.752Z" fill="#20AB58"/>
<path d="M469.36 371.052C472.731 371.561 487.901 381.227 487.901 381.227C487.901 381.227 514.028 370.798 508.41 371.815C502.791 372.833 490.43 374.105 490.43 374.105L492.677 361.387L479.754 367.746L476.383 357.317L469.36 371.052Z" fill="#00D455"/>
<path d="M475.54 392.086C483.018 392.086 489.08 386.768 489.08 380.209C489.08 373.65 483.018 368.333 475.54 368.333C468.062 368.333 462 373.65 462 380.209C462 386.768 468.062 392.086 475.54 392.086Z" fill="#F6B88D"/>
<path d="M592.545 427.775C589.174 428.283 554.9 427.775 557.709 427.266C560.518 426.757 572.318 522.905 572.318 522.905L585.803 521.888C585.803 521.888 594.792 428.283 592.545 427.775Z" fill="#20AB58"/>
<path d="M587.928 498.893C587.589 502.65 587.331 505.54 587.051 508.574C581.585 508.785 575.66 509.039 570.613 509.352C570.235 506.378 569.881 503.651 569.406 499.986C575.334 499.626 581.3 499.267 587.928 498.893V498.893Z" fill="#FFD5D5"/>
<path d="M566.343 476.944C573.784 477.515 581.563 478.117 589.688 478.804C589.443 481.687 589.2 484.496 588.955 487.294H567.735C567.28 483.879 566.824 480.463 566.343 476.944V476.944Z" fill="#FFD5D5"/>
<path d="M591.351 458.395C591.175 460.708 590.963 463.194 590.77 465.602L565.043 467.687C564.658 464.958 564.274 462.214 563.89 459.589C569.195 459.333 581.837 458.731 591.351 458.395V458.395Z" fill="#FFD5D5"/>
<path d="M592.566 440.288C592.449 442.447 592.272 445.052 592.103 447.598L562.274 448.8C561.799 445.76 561.344 443.018 560.906 440.47C568.827 440.461 581.443 440.437 592.566 440.288L592.566 440.288Z" fill="#FFD5D5"/>
<path d="M594.279 517.44C592.031 517.694 565.623 517.44 565.623 517.44C565.623 517.44 570.465 524.179 570.118 529.141C569.771 534.102 568.714 538.553 553.262 537.28C537.811 536.008 537.811 524.308 542.587 519.22C532.192 518.966 516.46 546.438 543.149 546.691C594.114 547.175 597.65 546.946 598.774 546.946C599.897 546.946 595.122 530.158 595.122 530.158L594.279 517.44Z" fill="#00D455"/>
<path d="M618.537 427.775C621.908 428.283 656.182 427.775 653.373 427.266C650.563 426.757 638.764 522.905 638.764 522.905L625.279 521.888C625.279 521.888 616.289 428.283 618.537 427.775Z" fill="#20AB58"/>
<path d="M623.153 498.893C623.493 502.65 623.75 505.54 624.031 508.574C629.496 508.785 635.422 509.039 640.468 509.352C640.846 506.378 641.201 503.651 641.676 499.986C635.747 499.626 629.782 499.267 623.153 498.893Z" fill="#FFD5D5"/>
<path d="M644.739 476.944C637.297 477.515 629.518 478.117 621.393 478.804C621.638 481.687 621.881 484.496 622.126 487.294H643.346C643.801 483.879 644.257 480.463 644.739 476.944V476.944Z" fill="#FFD5D5"/>
<path d="M597.447 249.722C637.599 249.722 668.736 301.344 653.33 357.443C637.036 416.777 720.575 433.463 601.286 434.641C484.722 435.793 571.362 421.355 551.135 363.548C531.852 308.44 557.295 249.722 597.447 249.722Z" fill="#20AB58"/>
<path d="M597.447 249.722C637.599 249.722 668.736 301.344 653.33 357.443C637.036 416.777 720.575 433.463 601.286 434.641C484.722 435.793 571.362 421.355 551.135 363.548C531.852 308.44 557.295 249.722 597.447 249.722Z" fill="#20AB58"/>
<path d="M597.447 249.722C637.599 249.722 668.736 301.344 653.33 357.443C637.036 416.777 720.581 434.945 601.286 434.641C488.298 434.354 571.362 421.355 551.135 363.548C531.852 308.44 557.295 249.722 597.447 249.722Z" fill="#20AB58"/>
<path d="M558.978 289.657C559.821 289.657 532.57 298.56 513.186 300.595C512.348 300.683 558.978 314.076 558.978 314.076L570.216 353.247L601.4 321.707C601.4 321.707 636.797 355.028 635.112 354.265C633.426 353.502 643.259 316.62 643.259 316.62C643.259 316.62 672.757 313.059 685.68 303.393C657.587 299.069 636.236 291.438 636.236 291.438L558.978 289.657Z" fill="#00D455"/>
<path d="M693.982 238.382C693.982 257.509 683.874 275.853 665.882 289.378C647.89 302.903 623.487 310.501 598.043 310.501C572.599 310.501 548.196 302.903 530.204 289.378C512.212 275.853 502.104 257.509 502.104 238.382C502.104 219.255 512.212 200.911 530.204 187.386C548.196 173.861 572.599 166.263 598.043 166.263C623.487 166.263 647.89 173.861 665.882 187.386C683.874 200.911 693.982 219.255 693.982 238.382V238.382Z" fill="#F6B88D"/>
<path d="M547.478 253.918C552.008 253.918 555.68 250.697 555.68 246.724C555.68 242.751 552.008 239.53 547.478 239.53C542.948 239.53 539.275 242.751 539.275 246.724C539.275 250.697 542.948 253.918 547.478 253.918Z" fill="black"/>
<path d="M640.844 253.918C645.374 253.918 649.046 250.697 649.046 246.724C649.046 242.751 645.374 239.53 640.844 239.53C636.314 239.53 632.641 242.751 632.641 246.724C632.641 250.697 636.314 253.918 640.844 253.918Z" fill="black"/>
<path d="M611.443 285.933H580.454C580.454 285.933 584.824 275.142 595.949 275.142C607.073 275.142 611.443 285.933 611.443 285.933V285.933Z" fill="#AA0000"/>
<path d="M574.494 196.363C576.083 195.644 616.211 174.42 633.295 189.529C650.379 204.637 579.262 248.882 580.851 248.163C587.877 234.009 601.873 200.495 574.494 196.363V196.363Z" fill="#6C5353"/>
<path d="M617.605 105.009C530.042 105.9 499.321 169.319 499.424 217.253C500.796 213.07 502.354 208.934 504.171 206.254C505.809 209.316 510.032 213.687 514.254 217.633C515.418 218.545 516.758 219.67 518.077 220.823C520.958 223.341 523.639 225.859 523.639 225.859L535.559 196.185L567.344 216.508L579.857 188.991L597.935 215.427L617.204 187.55C617.204 187.55 635.679 216.147 636.871 217.586C637.02 217.766 637.454 217.726 638.1 217.52C649.326 213.106 656.406 203.408 666.468 194.744L669.052 223.343L686.732 202.839L692.879 214.631C686.336 177.747 658.494 140.632 673.889 134.735C694.19 126.959 688.47 156.445 688.47 156.445C706.98 157.28 714.98 115.341 645.521 106.685C635.633 105.453 626.337 104.921 617.605 105.01V105.009Z" fill="#20AB58"/>
<path d="M692.879 214.631L686.731 202.839L669.051 223.343L666.469 194.743C656.407 203.407 649.326 213.106 638.1 217.52C637.454 217.726 637.02 217.766 636.871 217.586C635.679 216.147 617.204 187.55 617.204 187.55L597.935 215.427L579.858 188.99L567.344 216.508L535.559 196.185L523.639 225.859C519.497 222.457 507.252 212.016 504.171 206.255C500.198 212.11 501.581 212.118 499.424 217.253C499.594 219.603 497.943 225.472 502.217 240.781C502.673 240.42 502.456 240.508 503.016 240.098C504.698 238.864 506.862 237.424 509.567 235.879C512.272 234.334 515.52 232.683 519.369 231.03C523.218 229.378 527.668 227.724 532.782 226.168C537.896 224.611 543.671 223.153 550.17 221.897C556.67 220.64 563.894 219.587 571.9 218.835C579.907 218.082 588.699 217.631 598.333 217.586C607.968 217.541 616.861 217.897 625.053 218.551C633.244 219.205 640.732 220.159 647.548 221.314C654.364 222.469 660.509 223.824 666.018 225.282C671.528 226.74 676.403 228.298 680.674 229.861C684.945 231.424 688.612 232.991 691.713 234.46C692.581 234.871 693.07 235.191 693.85 235.585C694.226 231.18 693.932 218.274 692.879 214.631V214.631Z" fill="#00D455"/>
<path d="M651.162 374.947L554.116 376.913C554.818 384.387 553.75 390.954 551.92 396.743H656.042C653.486 390.463 651.409 383.251 651.162 374.947Z" fill="black"/>
<path d="M587.208 371.366C590.037 368.625 616.949 368.978 619.588 371.366C622.418 373.928 623.014 398.841 619.588 401.942C616.162 405.044 590.832 405.044 587.208 401.942C583.583 398.841 584.57 373.923 587.208 371.366V371.366Z" fill="#FFCC00"/>
<path d="M594.463 378.679C595.989 377.2 610.507 377.391 611.93 378.679C613.457 380.061 613.778 393.5 611.93 395.173C610.082 396.846 596.418 396.846 594.463 395.173C592.508 393.5 593.04 380.058 594.463 378.679Z" fill="black"/>
<path d="M619.731 458.395C619.907 460.708 620.119 463.194 620.311 465.602L646.039 467.687C646.424 464.958 646.808 462.214 647.191 459.589C641.887 459.333 629.245 458.731 619.731 458.395V458.395Z" fill="#FFD5D5"/>
<path d="M618.515 440.288C618.632 442.447 618.81 445.052 618.978 447.598L648.807 448.8C649.282 445.76 649.737 443.018 650.175 440.47C642.254 440.461 629.638 440.438 618.515 440.288V440.288Z" fill="#FFD5D5"/>
<path d="M616.803 517.44C619.05 517.695 645.458 517.44 645.458 517.44C645.458 517.44 640.616 524.179 640.963 529.141C641.31 534.102 642.367 538.553 657.819 537.28C673.271 536.008 673.271 524.308 668.495 519.22C678.89 518.966 694.622 546.438 667.933 546.691C616.968 547.175 613.431 546.946 612.308 546.946C611.184 546.946 615.96 530.158 615.96 530.158L616.803 517.44Z" fill="#00D455"/>
</g>
<g clip-path="url(#clip2)">
<path d="M327.019 463.696C331.426 462.749 376.231 463.696 372.558 464.642C368.886 465.588 353.461 286.732 353.461 286.732L335.833 288.625C335.833 288.625 324.081 462.749 327.019 463.696Z" fill="#20AB58"/>
<path d="M333.054 331.4C333.497 324.41 333.834 319.036 334.201 313.39C341.346 312.998 349.092 312.526 355.689 311.945C356.184 317.476 356.646 322.548 357.267 329.367C349.517 330.036 341.719 330.704 333.054 331.4V331.4Z" fill="#ECEFF1" fill-opacity="0.9"/>
<path d="M361.272 372.23C351.544 371.167 341.375 370.048 330.753 368.769C331.073 363.408 331.391 358.181 331.711 352.976H359.451C360.046 359.329 360.642 365.684 361.272 372.23V372.23Z" fill="#ECEFF1" fill-opacity="0.9"/>
<path d="M328.58 406.735C328.81 402.432 329.087 397.808 329.339 393.329L362.971 389.45C363.474 394.526 363.977 399.631 364.478 404.514C357.543 404.99 341.017 406.11 328.58 406.735V406.735Z" fill="#ECEFF1" fill-opacity="0.9"/>
<path d="M326.991 440.419C327.144 436.401 327.376 431.555 327.597 426.82L366.591 424.584C367.212 430.239 367.806 435.339 368.379 440.079C358.024 440.097 341.532 440.141 326.991 440.419L326.991 440.419Z" fill="#ECEFF1" fill-opacity="0.9"/>
<path d="M324.752 296.898C327.69 296.425 362.212 296.898 362.212 296.898C362.212 296.898 355.882 284.362 356.336 275.132C356.79 265.903 358.172 257.624 378.371 259.991C398.571 262.357 398.571 284.123 392.327 293.586C405.916 294.059 426.482 242.955 391.593 242.484C324.968 241.585 320.345 242.011 318.876 242.011C317.407 242.011 323.65 273.24 323.65 273.24L324.752 296.898Z" fill="#D40000"/>
<path d="M377.943 494.639C382.35 493.693 427.156 494.639 423.483 495.586C419.811 496.532 404.386 317.676 404.386 317.676L386.757 319.568C386.757 319.568 375.005 493.693 377.943 494.639Z" fill="#20AB58"/>
<path d="M383.979 362.344C384.422 355.354 384.759 349.979 385.126 344.334C392.27 343.941 400.017 343.47 406.614 342.888C407.108 348.42 407.571 353.492 408.192 360.311C400.442 360.979 392.643 361.647 383.979 362.344V362.344Z" fill="#ECEFF1" fill-opacity="0.9"/>
<path d="M412.196 403.174C402.468 402.111 392.3 400.991 381.678 399.713C381.998 394.351 382.316 389.124 382.636 383.92H410.376C410.971 390.272 411.567 396.628 412.196 403.174V403.174Z" fill="#ECEFF1" fill-opacity="0.9"/>
<path d="M379.504 437.679C379.735 433.376 380.012 428.751 380.263 424.272L413.896 420.394C414.399 425.47 414.901 430.575 415.402 435.457C408.468 435.933 391.942 437.054 379.504 437.679V437.679Z" fill="#ECEFF1" fill-opacity="0.9"/>
<path d="M377.916 471.362C378.069 467.345 378.3 462.499 378.522 457.763L417.515 455.528C418.136 461.183 418.731 466.282 419.304 471.023C408.948 471.041 392.457 471.085 377.916 471.362L377.916 471.362Z" fill="#ECEFF1" fill-opacity="0.9"/>
<path d="M375.677 327.842C378.615 327.368 413.137 327.842 413.137 327.842C413.137 327.842 406.807 315.305 407.261 306.076C407.714 296.847 409.097 288.567 429.296 290.935C449.495 293.301 449.495 315.066 443.252 324.53C456.84 325.003 477.407 273.899 442.517 273.428C375.892 272.529 371.27 272.954 369.801 272.954C368.332 272.954 374.575 304.183 374.575 304.183L375.677 327.842Z" fill="#DF1F00"/>
<path fill-rule="evenodd" clip-rule="evenodd" d="M487.654 412.236C487.654 404.774 481.22 398.695 473.229 398.695H228.632C220.683 398.695 214.249 404.774 214.249 412.236V565.656C214.249 573.157 220.683 579.197 228.632 579.197H473.229C481.22 579.197 487.654 573.157 487.654 565.656V412.236Z" fill="#20AB58"/>
<path d="M487.654 412.236C487.654 404.774 481.22 398.695 473.229 398.695H228.632C220.683 398.695 214.249 404.774 214.249 412.236V565.656C214.249 573.157 220.683 579.197 228.632 579.197H473.229C481.22 579.197 487.654 573.157 487.654 565.656V412.236Z" stroke="#05682D" stroke-width="2.91733" stroke-miterlimit="10" stroke-linejoin="round"/>
<path fill-rule="evenodd" clip-rule="evenodd" d="M295.963 581.606C298.739 584.014 316.528 593.489 326.832 596.095C337.094 598.701 347.187 598.306 357.659 597.2C368.131 596.095 383.566 591.989 389.706 589.383C395.846 586.817 400.178 583.145 394.458 581.606C388.697 580.066 366.575 579.395 355.304 580.145C344.033 580.855 334.318 585.83 326.832 586.067C319.304 586.304 315.141 582.158 310.22 581.606C305.258 581.053 293.187 579.197 295.963 581.606V581.606Z" fill="#AA0000"/>
<path d="M295.963 581.606C298.739 584.014 316.528 593.489 326.832 596.095C337.094 598.701 347.187 598.306 357.659 597.2C368.131 596.095 383.566 591.989 389.706 589.383C395.846 586.817 400.178 583.145 394.458 581.606C388.697 580.066 366.575 579.395 355.304 580.145C344.033 580.855 334.318 585.83 326.832 586.067C319.304 586.304 315.141 582.158 310.22 581.606C305.258 581.053 293.188 579.197 295.963 581.606" stroke="#5E0404" stroke-width="2.188" stroke-miterlimit="10" stroke-linejoin="round"/>
<path fill-rule="evenodd" clip-rule="evenodd" d="M233.09 587.172C234.057 585.12 255.842 587.172 266.314 582.711C276.786 578.25 283.725 566.208 295.963 560.444C308.243 554.68 327 549.508 339.87 548.205C352.738 546.902 361.823 548.364 373.094 552.627C384.365 556.931 395.215 569.209 407.495 573.789C419.776 578.408 434.706 577.894 446.734 580.145C458.804 582.356 482.271 585.435 479.874 587.172C477.476 588.909 447.827 590.883 432.435 590.528C417 590.133 400.388 588.12 387.351 584.961C374.272 581.803 365.187 572.131 354.127 571.578C343.024 571.025 331.584 578.25 320.902 581.606C310.22 584.961 300.127 589.383 290.033 591.633C279.94 593.844 269.847 594.989 260.384 594.989C250.879 594.989 232.08 589.225 233.09 587.172V587.172Z" fill="#AA0000"/>
<path d="M233.09 587.172C234.057 585.12 255.842 587.172 266.314 582.711C276.786 578.25 283.725 566.208 295.963 560.444C308.243 554.68 327 549.508 339.87 548.205C352.738 546.902 361.823 548.364 373.094 552.627C384.365 556.931 395.215 569.209 407.495 573.789C419.776 578.408 434.706 577.894 446.734 580.145C458.804 582.356 482.271 585.435 479.874 587.172C477.476 588.909 447.827 590.883 432.435 590.528C417 590.133 400.388 588.12 387.351 584.961C374.272 581.803 365.187 572.131 354.127 571.578C343.024 571.025 331.584 578.25 320.902 581.606C310.22 584.961 300.127 589.383 290.033 591.633C279.94 593.844 269.847 594.989 260.384 594.989C250.879 594.989 232.08 589.225 233.09 587.172" stroke="#5E0404" stroke-width="2.188" stroke-miterlimit="10" stroke-linejoin="round"/>
<path fill-rule="evenodd" clip-rule="evenodd" d="M329.187 395.615C323.257 400.432 322.29 411.762 320.902 424.554C319.514 437.346 320.902 455.743 320.902 472.443C320.902 489.143 320.902 510.147 320.902 524.794C320.902 539.48 320.902 550.377 320.902 560.444C320.902 570.512 315.561 580.816 320.902 585.277C326.243 589.738 348.197 591.673 352.907 587.172C357.659 582.672 349.753 569.525 349.374 558.233C348.953 546.903 349.164 534.269 350.552 519.227C351.94 504.185 357.07 484.327 357.659 467.982C358.248 451.677 354.295 433.279 354.127 421.198C353.916 409.157 360.435 400.234 356.482 395.615C352.529 390.956 335.117 390.759 329.187 395.615V395.615Z" fill="#AA0000"/>
<path d="M329.187 395.615C323.257 400.432 322.29 411.762 320.902 424.554C319.514 437.346 320.902 455.743 320.902 472.443C320.902 489.143 320.902 510.147 320.902 524.794C320.902 539.48 320.902 550.377 320.902 560.444C320.902 570.512 315.561 580.816 320.902 585.277C326.243 589.738 348.197 591.673 352.907 587.172C357.659 582.672 349.753 569.525 349.374 558.233C348.953 546.903 349.164 534.269 350.552 519.227C351.94 504.185 357.07 484.327 357.659 467.982C358.248 451.677 354.295 433.279 354.127 421.198C353.916 409.157 360.435 400.234 356.482 395.615C352.529 390.956 335.117 390.759 329.187 395.615" stroke="#5E0404" stroke-width="2.188" stroke-miterlimit="10" stroke-linejoin="round"/>
<path fill-rule="evenodd" clip-rule="evenodd" d="M355.893 244.288C352.655 241.445 347.566 241.603 344.496 244.643L168.534 420.843C165.464 423.883 165.632 428.7 168.912 431.542L189.141 449.387C192.38 452.23 197.51 452.072 200.539 449.032L376.5 272.832C379.571 269.792 379.402 264.976 376.164 262.133L355.893 244.288Z" fill="#20AB58"/>
<path d="M355.893 244.288C352.655 241.445 347.566 241.603 344.496 244.643L168.534 420.843C165.464 423.883 165.632 428.7 168.913 431.542L189.141 449.387C192.38 452.23 197.511 452.071 200.539 449.032L376.5 272.832C379.571 269.792 379.402 264.976 376.164 262.133L355.893 244.288Z" stroke="#05682D" stroke-width="2.91733" stroke-miterlimit="10" stroke-linejoin="round"/>
</g>
<defs>
<clipPath id="clip0">
<rect width="271" height="394" fill="white"/>
</clipPath>
<clipPath id="clip1">
<rect width="278" height="442" fill="white" transform="translate(462 105)"/>
</clipPath>
<clipPath id="clip2">
<rect width="324" height="358" fill="white" transform="translate(165 241)"/>
</clipPath>
</defs>
</svg>
