<svg width="235" height="385" viewBox="0 0 235 385" fill="none" xmlns="http://www.w3.org/2000/svg">
<path d="M147.777 216.281C149.112 214.658 169.662 203.872 186.339 190.538C203.017 177.204 195.252 184.277 213.933 168.508C215.348 167.314 215.352 189.019 215.352 189.019C215.352 189.019 212.349 195.139 199.677 203.604C187.005 212.069 168.694 224.476 168.694 224.476L147.777 216.281Z" fill="#D40000"/>
<path d="M215.407 167.079C215.099 169.978 219.863 184.701 219.863 184.701C219.863 184.701 205.496 203.897 207.564 199.49C209.632 195.083 213.377 185.168 213.377 185.168L202.287 184.13L210.394 174.908L202.432 169.752L215.407 167.079Z" fill="#00D455"/>
<path d="M231.584 176.926C229.962 183.096 224.217 186.888 218.754 185.396C213.29 183.905 210.177 177.694 211.799 171.524C213.422 165.354 219.166 161.562 224.629 163.053C230.093 164.545 233.207 170.756 231.584 176.926Z" fill="#FCC8A4"/>
<path d="M105.328 225.166C104.137 223.43 84.6024 210.857 69.1403 196.087C53.6783 181.318 60.8025 189.056 43.555 171.682C42.2484 170.366 40.3858 192 40.3858 192C40.3858 192 42.8508 198.366 54.7421 207.927C66.6334 217.488 83.8017 231.479 83.8017 231.479L105.328 225.166Z" fill="#D40000"/>
<path d="M42.1993 170.146C42.2575 173.063 36.2545 187.314 36.2545 187.314C36.2545 187.314 48.9126 207.719 47.2311 203.143C45.5497 198.568 42.6715 188.354 42.6715 188.354L53.8006 188.302L46.5197 178.393L54.8872 173.96L42.1993 170.146Z" fill="#00D455"/>
<path d="M25.2464 178.534C26.3334 184.828 31.7276 189.117 37.2947 188.115C42.8619 187.113 46.4938 181.198 45.4068 174.905C44.3199 168.611 38.9257 164.322 33.3585 165.324C27.7914 166.326 24.1594 172.24 25.2464 178.534Z" fill="#FCC8A4"/>
<path d="M117.203 281.15C114.354 281.593 85.3808 281.15 87.7557 280.707C90.1304 280.264 100.105 364.012 100.105 364.012L111.504 363.126C111.504 363.126 119.103 281.593 117.203 281.15Z" fill="#D40000"/>
<path d="M113.301 343.097C113.014 346.37 112.796 348.886 112.559 351.53C107.939 351.713 102.93 351.934 98.6639 352.207C98.3442 349.616 98.0449 347.241 97.6434 344.049C102.655 343.736 107.698 343.423 113.301 343.097V343.097Z" fill="#FFD5D5"/>
<path d="M95.0541 323.978C101.345 324.476 107.92 325 114.789 325.599C114.581 328.109 114.376 330.557 114.169 332.994H96.2312C95.8465 330.019 95.4612 327.043 95.0541 323.978V323.978Z" fill="#FFD5D5"/>
<path d="M116.194 307.821C116.045 309.836 115.866 312.002 115.703 314.099L93.9553 315.915C93.6299 313.538 93.3049 311.148 92.9809 308.861C97.465 308.639 108.151 308.114 116.194 307.821V307.821Z" fill="#FFD5D5"/>
<path d="M117.221 292.049C117.122 293.93 116.972 296.199 116.829 298.417L91.6146 299.463C91.2129 296.816 90.8286 294.428 90.4582 292.208C97.1543 292.2 107.818 292.179 117.221 292.049L117.221 292.049Z" fill="#FFD5D5"/>
<path d="M118.669 359.252C116.769 359.474 94.4459 359.252 94.4459 359.252C94.4459 359.252 98.539 365.122 98.2456 369.444C97.9523 373.765 97.0585 377.642 83.9967 376.533C70.9352 375.426 70.9352 365.234 74.9724 360.803C66.1855 360.581 52.8866 384.511 75.4474 384.731C118.53 385.152 121.519 384.953 122.469 384.953C123.419 384.953 119.381 370.33 119.381 370.33L118.669 359.252Z" fill="#00D455"/>
<path d="M139.175 281.15C142.024 281.593 170.997 281.15 168.622 280.707C166.247 280.264 156.273 364.012 156.273 364.012L144.874 363.126C144.874 363.126 137.275 281.593 139.175 281.15Z" fill="#D40000"/>
<path d="M143.077 343.097C143.364 346.37 143.582 348.886 143.819 351.53C148.439 351.713 153.448 351.934 157.714 352.207C158.034 349.616 158.333 347.242 158.735 344.049C153.723 343.735 148.68 343.423 143.077 343.097Z" fill="#FFD5D5"/>
<path d="M161.324 323.978C155.033 324.476 148.458 325 141.589 325.599C141.796 328.109 142.002 330.557 142.209 332.994H160.147C160.531 330.019 160.917 327.043 161.324 323.978V323.978Z" fill="#FFD5D5"/>
<path d="M121.347 126.059C155.288 126.059 181.61 171.024 168.586 219.888C154.813 271.57 225.43 286.104 124.592 287.131C26.0579 288.134 99.297 275.558 82.1983 225.206C65.8981 177.205 87.4058 126.059 121.347 126.059Z" fill="#D40000"/>
<path d="M121.347 126.059C155.288 126.059 181.61 171.024 168.586 219.888C154.813 271.57 225.43 286.104 124.592 287.131C26.0579 288.134 99.297 275.558 82.1983 225.206C65.8981 177.205 87.4058 126.059 121.347 126.059Z" fill="#D40000"/>
<path d="M121.347 126.059C155.288 126.059 181.61 171.024 168.586 219.888C154.813 271.57 225.436 287.395 124.592 287.131C29.0805 286.881 99.2969 275.558 82.1983 225.206C65.898 177.205 87.4058 126.059 121.347 126.059Z" fill="#D40000"/>
<path d="M88.8285 160.844C89.541 160.844 66.5052 168.599 50.119 170.371C49.4113 170.448 88.8285 182.114 88.8285 182.114L98.3278 216.233L124.688 188.76C124.688 188.76 154.611 217.784 153.186 217.12C151.761 216.455 160.073 184.329 160.073 184.329C160.073 184.329 185.009 181.227 195.933 172.808C172.185 169.042 154.136 162.395 154.136 162.395L88.8285 160.844Z" fill="#00D455"/>
<path d="M202.95 116.181C202.95 132.842 194.406 148.82 179.197 160.6C163.988 172.381 143.36 179 121.851 179C100.342 179 79.7143 172.381 64.5052 160.6C49.2962 148.82 40.7519 132.842 40.7519 116.181C40.7519 99.5205 49.2962 83.5424 64.5052 71.7616C79.7143 59.9808 100.342 53.3625 121.851 53.3625C143.36 53.3625 163.988 59.9809 179.197 71.7616C194.406 83.5424 202.95 99.5205 202.95 116.181V116.181Z" fill="#FCC8A4"/>
<path d="M79.1068 129.714C82.9362 129.714 86.0405 126.908 86.0405 123.447C86.0405 119.986 82.9362 117.181 79.1068 117.181C75.2775 117.181 72.1732 119.986 72.1732 123.447C72.1732 126.908 75.2775 129.714 79.1068 129.714Z" fill="black"/>
<path d="M158.032 129.714C161.861 129.714 164.965 126.908 164.965 123.447C164.965 119.986 161.861 117.181 158.032 117.181C154.202 117.181 151.098 119.986 151.098 123.447C151.098 126.908 154.202 129.714 158.032 129.714Z" fill="black"/>
<path d="M106.982 148.2H133.179C133.179 148.2 129.484 157.6 120.08 157.6C110.677 157.6 106.982 148.2 106.982 148.2V148.2Z" fill="#AA0000"/>
<path d="M101.945 79.5811C103.288 78.9545 137.209 60.468 151.65 73.6279C166.092 86.7877 105.975 125.327 107.318 124.701C113.258 112.372 125.088 83.1798 101.945 79.5811V79.5811Z" fill="#6C5353"/>
<path d="M138.387 0.00821926C64.3681 0.783605 38.3992 56.0242 38.4863 97.7771C39.6459 94.133 40.9624 90.5303 42.4991 88.1964C43.8838 90.8637 47.4528 94.6704 51.0223 98.1081C52.0062 98.9018 53.1389 99.8822 54.2542 100.887C56.6891 103.08 58.9557 105.273 58.9557 105.273L69.0315 79.426L95.9003 97.1281L106.478 73.1592L121.76 96.1868L138.049 71.9041C138.049 71.9041 153.666 96.8139 154.673 98.0672C154.799 98.224 155.166 98.1891 155.712 98.0092C165.202 94.1651 171.187 85.7174 179.692 78.1709L181.876 103.081L196.822 85.2221L202.019 95.4926C196.487 63.3659 172.952 31.0366 185.965 25.9006C203.127 19.1274 198.291 44.8105 198.291 44.8105C213.938 45.5378 220.7 9.00726 161.985 1.46749C153.627 0.394187 145.768 -0.0690511 138.387 0.00826963V0.00821926Z" fill="#D40000"/>
<path d="M202.018 95.4927L196.821 85.2215L181.876 103.081L179.693 78.1701C171.188 85.7166 165.202 94.1651 155.712 98.0092C155.166 98.1891 154.799 98.2239 154.673 98.0672C153.666 96.8139 138.048 71.9042 138.048 71.9042L121.76 96.1867L106.479 73.1585L95.9003 97.1281L69.0317 79.4255L58.9558 105.273C55.4546 102.31 45.1036 93.2156 42.4984 88.1973C39.1404 93.2972 40.3089 93.3044 38.4863 97.7771C38.6299 99.8238 37.2343 104.936 40.8474 118.271C41.2322 117.957 41.0494 118.033 41.5224 117.676C42.9445 116.601 44.7735 115.346 47.0601 114.001C49.3468 112.655 52.0925 111.217 55.346 109.778C58.5996 108.338 62.3614 106.897 66.6842 105.542C71.0069 104.186 75.8889 102.916 81.3832 101.822C86.8775 100.727 92.9836 99.8101 99.7518 99.1546C106.52 98.4992 113.952 98.1064 122.096 98.0672C130.241 98.0281 137.759 98.3378 144.683 98.9075C151.607 99.4773 157.937 100.308 163.699 101.314C169.461 102.321 174.655 103.5 179.312 104.77C183.97 106.04 188.09 107.398 191.701 108.759C195.311 110.12 198.411 111.485 201.033 112.765C201.766 113.123 202.179 113.402 202.839 113.745C203.156 109.908 202.909 98.666 202.018 95.4926V95.4927Z" fill="#00D455"/>
<path d="M166.753 235.135L84.7188 236.847C85.3118 243.357 84.4086 249.078 82.8621 254.12H170.879C168.718 248.649 166.963 242.368 166.753 235.135Z" fill="black"/>
<path d="M112.692 232.016C115.084 229.628 137.833 229.935 140.063 232.016C142.455 234.248 142.959 255.947 140.063 258.649C137.168 261.35 115.755 261.351 112.692 258.649C109.628 255.947 110.462 234.242 112.692 232.016V232.016Z" fill="#FFCC00"/>
<path d="M118.825 238.386C120.115 237.098 132.387 237.263 133.59 238.386C134.88 239.59 135.152 251.295 133.59 252.753C132.028 254.21 120.477 254.21 118.825 252.753C117.172 251.295 117.622 239.587 118.825 238.386Z" fill="black"/>
<path d="M140.184 307.821C140.333 309.836 140.512 312.002 140.675 314.099L162.423 315.915C162.748 313.538 163.073 311.148 163.397 308.861C158.913 308.639 148.226 308.114 140.184 307.821V307.821Z" fill="#FFD5D5"/>
<path d="M139.156 292.049C139.255 293.93 139.405 296.199 139.548 298.417L164.763 299.463C165.165 296.816 165.549 294.428 165.919 292.208C159.223 292.2 148.559 292.18 139.156 292.049V292.049Z" fill="#FFD5D5"/>
<path d="M137.709 359.252C139.609 359.474 161.932 359.252 161.932 359.252C161.932 359.252 157.839 365.122 158.132 369.444C158.426 373.765 159.319 377.642 172.381 376.534C185.443 375.426 185.443 365.234 181.405 360.803C190.192 360.581 203.491 384.511 180.931 384.731C137.848 385.152 134.859 384.953 133.909 384.953C132.959 384.953 136.996 370.33 136.996 370.33L137.709 359.252Z" fill="#00D455"/>
</svg>
