<svg height="512pt" viewBox="0 -9 512.08635 512" width="512pt" xmlns="http://www.w3.org/2000/svg"><path d="m307.199219 204.847656c35.992187 22.71875 74.808593 40.621094 115.457031 53.25l13.140625-53.675781c-30.90625-26.539063-57.078125-58.132813-77.398437-93.441406-23.695313-40.46875-59.101563-72.808594-101.546876-92.757813zm0 0" fill="#c81e1e"/><path d="m503.464844 238.980469c0 23.566406-19.101563 42.667969-42.664063 42.667969-9.238281.035156-18.234375-2.960938-25.601562-8.535157-16.050781-12.035156-21.546875-33.632812-13.199219-51.878906s28.277344-28.210937 47.882812-23.941406c19.605469 4.269531 33.582032 21.625 33.582032 41.6875zm0 0" fill="#cfd8dc"/><path d="m477.867188 230.449219c0 23.5625-19.101563 42.664062-42.667969 42.664062-14.691407-11.015625-20.683594-30.203125-14.875-47.625 5.804687-17.421875 22.109375-29.171875 40.476562-29.171875 10.730469 8.066406 17.050781 20.707032 17.066407 34.132813zm0 0" fill="#e6e7e8"/><path d="m34.132812 366.980469h324.265626c14.140624 0 25.601562 11.460937 25.601562 25.601562v68.265625c0 14.140625-11.460938 25.601563-25.601562 25.601563h-324.265626c-14.136718 0-25.597656-11.460938-25.597656-25.601563v-68.265625c0-14.140625 11.460938-25.601562 25.597656-25.601562zm0 0" fill="#cfd8dc"/><path d="m59.734375 366.980469h273.066406c14.136719 0 25.597657 11.460937 25.597657 25.601562v68.265625c0 14.140625-11.460938 25.601563-25.597657 25.601563h-273.066406c-14.140625 0-25.601563-11.460938-25.601563-25.601563v-68.265625c0-14.140625 11.460938-25.601562 25.601563-25.601562zm0 0" fill="#f5f5f5"/><path d="m363.347656 349.914062c-1.191406 5.207032-2.898437 10.839844-4.949218 17.066407h-324.265626s0-6.398438.683594-17.066407c2.21875-33.960937 11.519532-111.273437 50.515625-163.753906 51.203125-68.863281 59.734375-146.261718 93.867188-163.5 34.132812-17.234375 85.335937-34.472656 110.933593 51.628906 25.601563 86.101563-8.53125 51.625 25.601563 137.726563 31.402344 79.191406 62.804687 78.25 47.613281 137.898437zm0 0" fill="#c81e1e"/><path d="m363.347656 341.382812h-328.53125c2.21875-33.109374 11.519532-108.460937 50.515625-159.660156 51.203125-67.15625 59.734375-142.59375 93.867188-159.402344 10.746093-5.628906 22.199219-9.789062 34.046875-12.375 28.417968-5.460937 58.96875 3.839844 76.886718 62.722657 25.601563 83.96875-8.53125 50.34375 25.601563 134.226562 31.402344 77.226563 62.804687 76.289063 47.613281 134.488281zm0 0" fill="#c81e1e"/><path d="m337.40625 341.382812h-302.589844c2.21875-33.109374 11.519532-108.460937 50.515625-159.660156 51.203125-67.15625 59.734375-142.59375 93.867188-159.402344 10.746093-5.628906 22.199219-9.789062 34.046875-12.375 19.800781 4.695313 38.488281 21.675782 50.945312 62.722657 25.601563 83.96875-8.53125 50.34375 25.601563 134.226562 31.402343 77.226563 62.804687 76.289063 47.613281 134.488281zm0 0" fill="#f44335"/><path d="m460.800781 187.78125c-8.441406-.007812-16.753906 2.085938-24.183593 6.09375-28.078126-25.183594-52.003907-54.636719-70.894532-87.28125-24.527344-41.992188-61.257812-75.523438-105.3125-96.125h-.117187c-3.09375-2.191406-6.394531-4.070312-9.855469-5.617188-26.207031-11.324218-53.890625-.484374-75.09375 10.242188-20.6875 10.375-32.0625 37.1875-46.492188 71.140625-12.824218 33.570313-29.734374 65.433594-50.34375 94.875-45.226562 60.851563-51.808593 151.996094-52.746093 178.5-15.105469 3.820313-25.7070315 17.390625-25.761719 32.972656v68.265625c0 18.851563 15.28125 34.132813 34.132812 34.132813h324.265626c18.851562 0 34.136718-15.28125 34.136718-34.132813v-68.265625c-.050781-14.570312-9.359375-27.496093-23.160156-32.164062 13.839844-47.339844 3.300781-63.886719-13.550781-90.230469-8.519531-12.910156-16.191407-26.363281-22.964844-40.269531 26.609375 14.972656 54.835937 26.859375 84.140625 35.441406 12.746094 21.207031 38.835938 30.261719 61.980469 21.515625 23.148437-8.746094 36.726562-32.796875 32.261719-57.132812-4.46875-24.339844-25.699219-42-50.441407-41.960938zm-85.335937 204.800781v68.265625c0 9.425782-7.640625 17.066406-17.066406 17.066406h-324.265626c-9.425781 0-17.066406-7.640624-17.066406-17.066406v-68.265625c0-9.425781 7.640625-17.066406 17.066406-17.066406h324.265626c9.425781 0 17.066406 7.640625 17.066406 17.066406zm-23.320313-34.132812h-309.222656c1.222656-26.976563 8.277344-112.0625 49.238281-167.160157 21.40625-30.546874 39.007813-63.585937 52.421875-98.390624 13.027344-30.71875 23.320313-55.011719 38.398438-62.640626 17.917969-9.019531 40.960937-18.28125 60.636719-9.773437 16.410156 7.082031 29.289062 25.992187 38.28125 56.234375 11.597656 39.023438 10.46875 52.011719 9.464843 63.472656-1.289062 14.804688-2.40625 27.597656 16.375 74.980469 8.925781 22.527344 20.207031 44.046875 33.644531 64.207031 16.523438 25.746094 23.707032 37.144532 10.761719 79.070313zm-30.4375-154.675781c-15.191406-39.332032-14.320312-49.972657-13.253906-62.097657.09375-1.109375.1875-2.234375.273437-3.414062 13.257813 15.019531 28.367188 28.300781 44.964844 39.519531 2.535156 1.691406 5.78125 1.902344 8.515625.550781 2.734375-1.351562 4.539063-4.058593 4.734375-7.101562.199219-3.039063-1.242187-5.957031-3.78125-7.648438-21.484375-14.683593-40.324218-32.90625-55.710937-53.890625-2.21875-12.804687-5.265625-25.457031-9.117188-37.871094-2.5-8.554687-5.640625-16.910156-9.386719-25 25.164063 18.371094 46.316407 41.683594 62.160157 68.511719 19.3125 33.210938 43.546875 63.300781 71.875 89.25-8.601563 9.390625-13.375 21.664063-13.378907 34.398438.011719 2.152343.160157 4.296875.449219 6.425781-30.953125-10.425781-60.597656-24.394531-88.34375-41.632812zm139.09375 69.339843c-18.851562 0-34.132812-15.28125-34.132812-34.132812 0-18.851563 15.28125-34.132813 34.132812-34.132813 18.851563 0 34.132813 15.28125 34.132813 34.132813 0 18.851562-15.28125 34.132812-34.132813 34.132812zm0 0"/><path d="m128 443.78125h-85.332031c-4.714844 0-8.535157 3.820312-8.535157 8.535156 0 4.710938 3.820313 8.53125 8.535157 8.53125h85.332031c4.710938 0 8.535156-3.820312 8.535156-8.53125 0-4.714844-3.824218-8.535156-8.535156-8.535156zm0 0"/><path d="m187.734375 443.78125h-17.066406c-4.714844 0-8.535157 3.820312-8.535157 8.535156 0 4.710938 3.820313 8.53125 8.535157 8.53125h17.066406c4.710937 0 8.53125-3.820312 8.53125-8.53125 0-4.714844-3.820313-8.535156-8.53125-8.535156zm0 0"/><path d="m180.90625 85.550781c-4.617188-.917969-9.109375 2.074219-10.035156 6.691407-7.613282 29.855468-21.582032 57.714843-40.960938 81.671874-34.335937 42.878907-36.042968 61.714844-36.042968 65.066407.015624 4.554687 3.664062 8.265625 8.21875 8.363281h.3125c4.5-.0625 8.203124-3.550781 8.535156-8.039062 0-.152344 1.570312-16.355469 32.273437-54.730469 21.144531-26.03125 36.289063-56.402344 44.355469-88.953125.453125-2.21875.007812-4.523438-1.242188-6.414063-1.246093-1.886719-3.195312-3.203125-5.414062-3.65625zm0 0"/></svg>