<?xml version="1.0" encoding="UTF-8"?>
<!DOCTYPE svg PUBLIC "-//W3C//DTD SVG 1.1//EN" "http://www.w3.org/Graphics/SVG/1.1/DTD/svg11.dtd">
<svg version="1.1" xmlns="http://www.w3.org/2000/svg" xmlns:xlink="http://www.w3.org/1999/xlink" x="0" y="0" width="1132" height="1089" viewBox="0, 0, 1132, 1089">
  <defs>
    <clipPath id="Clip_1">
      <path d="M0.06,0.15 L1131.66,0.15 L1131.66,1089 L0.06,1089 z"/>
    </clipPath>
  </defs>
  <g id="Layer_1">
    <g clip-path="url(#Clip_1)">
      <path d="M95.896,670.453 C90.355,688.543 85.361,706.827 78.144,724.35 C71.954,739.381 67.048,740.795 54.163,730.929 C47.442,725.782 40.306,721.71 32.31,719.28 C21.131,715.882 15.141,707.957 11.839,697.329 C7.843,684.463 7.329,671.146 6.548,657.854 C5.924,647.228 6.118,636.533 4.097,626.02 C3.629,623.588 3.251,620.97 2.058,618.88 C-1.64,612.404 0.032,606.717 4.012,601.245 C8.676,594.834 14.725,589.857 21.133,585.329 C46.926,567.097 75.704,555.163 105.593,545.657 C108.402,544.764 109.919,543.545 110.929,540.709 C113.897,532.379 120.086,526.545 127.066,521.524 C138.806,513.078 151.909,507.399 165.761,503.597 C169.862,502.472 171.555,500.67 172.601,496.64 C176.493,481.649 182.479,467.384 188.777,453.27 C190.054,450.408 189.789,448.924 187.139,446.825 C170.781,433.871 165.302,416.478 167.425,396.252 C167.859,392.124 168.354,387.952 169.383,383.946 C173.838,366.614 186.169,358.342 202.943,355.546 C211.727,354.081 211.747,354.229 212.229,345.193 C212.3,343.865 212.444,342.541 212.55,341.215 C212.702,339.321 212.471,338.215 209.921,338.333 C202.419,338.68 198.406,334.015 196.02,327.641 C192.421,318.027 194.164,308.596 197.609,299.378 C201.866,287.984 208.848,278.281 216.998,269.385 C219.055,267.14 220.535,264.699 221.603,261.83 C243.178,203.856 275.665,152.867 320.399,110.065 C377.71,55.229 444.977,19.073 523.356,4.846 C556.737,-1.214 590.319,-2.264 623.406,6.831 C650.886,14.385 674.547,28.838 694.751,48.98 C721.858,76.004 746.015,105.4 766.351,137.857 C768.079,140.616 769.174,139.854 771.305,138.689 C795.756,125.322 827.063,133.263 840.623,156.176 C856.025,182.199 842.458,214.487 812.195,223.836 C785.364,232.124 756.465,217.677 748.683,191.979 C745.692,182.1 746.119,172.277 749.887,162.62 C750.409,161.284 751.795,159.851 748.952,158.941 C732.427,153.648 717.187,145.468 701.142,137.154 C703.689,148.476 706.201,159.19 708.502,169.95 C717.878,213.806 725.217,257.926 725.2,302.962 C725.195,316.457 724.526,329.92 722.464,343.271 C722.035,346.046 722.211,346.872 725.511,346.744 C785.755,344.408 843.299,355.637 897.939,381.355 C939.734,401.027 976.88,427.425 1010.42,459.016 C1030.41,477.849 1051.06,495.987 1069.62,516.332 C1108.69,559.162 1128.43,609.576 1131.37,667.323 C1133.68,712.616 1121.96,754.637 1104.09,795.362 C1080.59,848.885 1047.27,895.349 1002.13,932.841 C954.46,972.437 899.874,996.495 838.148,1003.18 C790.576,1008.34 745.77,999.112 704.501,974.368 C701.459,972.544 700.451,972.614 699.539,976.404 C696.156,990.458 692.642,1004.49 688.198,1018.26 C687.61,1020.08 687.318,1021.51 689.461,1022.85 C692.006,1024.44 692.839,1027.35 693.019,1030.24 C693.764,1042.23 690.828,1053.21 684.372,1063.43 C680.356,1069.79 674.245,1069.39 667.455,1069.46 C672.346,1073.13 676.711,1076.29 680.938,1079.63 C682.604,1080.94 684.701,1082.55 684.028,1084.93 C683.29,1087.53 680.465,1087.1 678.462,1087.19 C663.662,1087.86 648.859,1088.73 634.051,1088.87 C589.242,1089.29 544.44,1088.64 499.647,1087.33 C497.13,1087.26 496.088,1086.68 496.119,1084 C496.161,1080.34 495.578,1076.68 495.611,1073.03 C495.643,1069.4 494.648,1067.8 490.527,1067.8 C483.556,1067.79 476.581,1067.01 469.617,1066.43 C467.138,1066.23 464.642,1065.87 462.235,1065.26 C458.758,1064.38 455.76,1059.47 453.654,1060.21 C450.822,1061.2 448.767,1064.81 444.798,1064.64 C442.326,1064.54 443.019,1066.63 442.92,1067.92 C442.525,1073.06 442.112,1078.22 442.029,1083.37 C441.983,1086.26 441.26,1087.32 438.07,1087.37 C419.092,1087.63 400.12,1088.33 381.142,1088.57 C357.819,1088.86 334.491,1088.95 311.166,1088.9 C294.351,1088.86 277.537,1088.43 260.756,1087.25 C258.376,1087.08 255.055,1087.79 254.151,1085.03 C253.187,1082.08 256.205,1080.41 258.193,1078.74 C265.501,1072.62 273.815,1068.02 282.028,1063.28 C283.567,1062.39 285.082,1061.46 287.534,1059.99 C276.737,1058.56 266.909,1057.73 257.24,1055.7 C249.153,1054 243.324,1050 241.359,1041.82 C239.093,1032.4 239.804,1023.27 246.295,1015.41 C248.903,1012.25 252.557,1011.91 256.969,1012.56 C251.258,1004.52 245.711,996.977 240.437,989.245 C222.681,963.215 207.5,935.76 195.534,906.592 C194.287,903.55 192.62,902.28 189.61,901.662 C184.57,900.629 179.621,899.162 174.609,897.984 C170.337,896.979 167.081,894.688 164.754,890.96 C155.853,876.706 151.596,861.279 152.957,844.439 C153.09,842.803 153.479,841.143 154.025,839.592 C156.339,833.027 158.998,832.139 164.942,835.781 C165.46,836.098 166.084,836.241 167.003,836.599 C167.279,824.296 166.866,812.366 167.785,800.439 C169.233,781.654 171.777,763.042 175.559,744.608 C176.261,741.187 175.496,739.236 173.03,736.899 C159.786,724.342 150.416,709.096 143.15,692.489 C142.119,690.133 141.235,688.447 138.206,687.839 C133.339,686.862 131.24,682.41 129.196,678.432 C122.988,666.35 119.515,653.359 117.051,640.082 C115.906,633.907 115.035,627.681 114.04,621.478 C116.212,614.895 119.174,608.644 122.049,602.355 C125.301,601.092 129.014,600.11 126.325,595.262 C126.072,590.151 129.187,586.157 131.17,581.91 C135.514,572.603 139.451,563.094 144.288,553.944 C138.52,559.172 132.314,563.89 127.108,569.717 C126.098,570.033 125.116,569.826 124.133,569.577 C117.983,567.215 113.192,563.198 110.148,557.371 C108.685,554.568 106.943,554.039 104.083,554.978 C76.731,563.949 50.398,575.073 26.683,591.677 C21.094,595.591 15.76,599.852 11.551,605.371 C9.131,608.544 8.236,611.596 9.836,615.535 C13.472,624.489 13.75,634.125 14.183,643.547 C14.703,654.852 15.299,666.134 16.322,677.403 C16.929,684.09 18.405,690.58 20.545,696.895 C22.914,703.886 27.325,708.985 34.735,711.174 C38.238,712.208 41.605,713.728 44.901,715.337 C51.503,717.568 56.33,722.633 62.134,726.144 C66.36,728.701 67.099,728.509 69.2,724.038 C71.745,718.624 73.818,713.022 75.647,707.322 C76.238,705.481 76.472,703.358 78.424,702.227 C79.942,702.739 79.814,701.433 80.159,700.644 C83.953,691.961 87.261,683.063 91.622,674.636 C92.548,672.846 93.008,670.339 95.896,670.453" fill="#2F201B"/>
    </g>
    <path d="M123.046,602.446 C121.08,607.146 118.955,611.789 117.223,616.574 C116.51,618.545 115.416,620.049 114.04,621.478 C107.727,637.705 101.455,653.947 95.896,670.453 C90.991,676.098 89.211,683.327 86.089,689.871 C84.089,694.064 82.352,698.381 80.417,702.606 C79.615,704.358 79.184,703.54 78.965,702.269 C77.639,700.73 78.363,699.104 78.841,697.546 C88.613,665.721 98.54,633.94 113.008,603.841 C117.33,594.849 122.285,586.127 127.981,577.931 C130.527,574.268 131.369,571.682 127.052,569.168 C127.512,566.432 129.86,565.123 131.608,563.464 C136.248,559.061 141.086,554.867 146.14,550.325 C147.118,552.564 145.789,553.805 145.163,555.139 C139.462,567.286 133.734,579.421 127.985,591.546 C127.404,592.77 126.945,593.982 127.042,595.354 C127.151,598.53 126.107,601.056 123.046,602.446" fill="#271A17"/>
    <path d="M768.182,828.419 C770.638,817.374 772.659,806.255 772.981,794.916 C773.048,792.523 774.179,791.894 776.128,791.282 C781.838,789.488 787.439,787.382 792.592,784.261 C800.067,779.734 802.08,775.363 800.697,766.764 C797.904,749.386 791.242,733.259 784.642,717.112 C783.511,714.345 781.978,711.703 781.176,708.849 C779.573,703.153 775.638,700.935 770.283,701.733 C765.932,702.382 764.718,700.312 763.494,696.84 C750.68,660.506 731.807,627.759 705.554,599.389 C702.085,595.64 695.784,592.692 695.732,588.131 C695.685,583.987 700.62,579.807 703.299,575.606 C722.77,545.08 726.811,511.853 720.546,476.83 C720.4,476.011 720.344,475.163 720.098,474.375 C718.88,470.484 718.727,467.62 723.706,465.763 C727.403,464.384 729.337,460.222 731.203,456.683 C740.155,439.697 745.221,421.567 746.946,402.472 C747.586,395.393 746.011,389.094 741.555,383.311 C735.657,375.658 729.762,368.03 723.208,360.917 C721.864,359.459 719.407,358.32 720.495,355.562 C721.61,352.738 724.273,353.778 726.145,353.708 C768.074,352.147 809.162,357.199 849.227,369.862 C909.046,388.769 960.416,421.735 1005.84,464.452 C1025.72,483.149 1046.26,501.156 1064.66,521.405 C1098.93,559.122 1118.05,603.21 1123.39,653.962 C1128.19,699.526 1118.47,742.205 1101.41,783.809 C1089.12,813.777 1073.39,841.845 1053.78,867.679 C1053.29,868.329 1052.67,868.884 1052.11,869.484 C1042.64,879.619 1031.9,888.253 1020.59,896.195 C998.18,911.92 973.534,921.622 946.095,923.812 C932.991,924.858 919.974,926.683 906.931,928.29 C889.833,930.397 872.788,930.685 855.837,926.578 C831.411,920.659 813.54,906.435 801.181,884.756 C796.063,875.778 791.822,866.353 786.661,857.399 C782.078,849.448 777.204,841.715 771.629,834.424 C770.218,832.579 768.648,830.813 768.182,828.419" fill="#FEFEFD"/>
    <path d="M713.458,351.005 C702.521,340.22 690.697,330.537 678.293,321.572 C642.956,296.037 604.264,276.865 563.608,261.505 C524.749,246.823 484.755,236.296 443.759,229.645 C409.646,224.11 375.281,221.698 340.772,223.656 C308.184,225.505 276.295,230.976 246.975,246.515 C242.033,249.134 237.333,252.21 231.144,255.896 C235.335,246.471 238.766,238.249 242.6,230.219 C260.533,192.67 283.565,158.601 312.295,128.424 C366.528,71.46 431.566,33.142 508.237,15.021 C532.961,9.178 558.095,6.242 583.51,7.682 C607.29,9.028 629.9,14.413 651.38,25.717 C671.718,36.421 687.875,51.558 703.242,67.948 C724.364,90.476 743.439,114.63 759.921,140.78 C761.956,144.009 763.938,147.276 765.374,150.867 C766.563,153.844 765.692,154.791 762.663,154.695 C757.407,154.529 752.51,152.871 747.676,151.111 C731.517,145.227 716.291,137.356 701.281,129.036 C699.357,127.969 698.413,126.546 697.97,124.406 C696.757,118.548 695.401,112.718 693.954,106.913 C693.305,104.309 693.246,100.572 689.037,101.566 C685.216,102.467 686.481,105.612 687.056,108.14 C692.106,130.347 697.352,152.511 702.232,174.756 C709.507,207.92 715.056,241.345 717.24,275.294 C718.784,299.295 718.57,323.19 714.974,347.006 C714.774,348.327 714.601,349.623 713.458,351.005" fill="#DF1F00"/>
    <path d="M689.285,814.245 C695.25,822.457 700.895,830.229 706.909,838.508 C694.368,841.19 682.219,843.875 670.032,846.377 C634.665,853.64 598.986,859.007 563.134,863.115 C541.656,865.576 520.102,867.333 498.504,868.637 C467.411,870.516 436.298,871.606 405.165,871.076 C369.064,870.46 333.018,868.658 297.096,864.612 C263.357,860.812 229.829,855.927 196.93,847.356 C190.82,845.763 184.869,843.561 178.768,841.924 C175.288,840.99 174.198,839.146 174.071,835.564 C172.952,804.096 176.562,773.077 183.177,742.411 C190.861,706.794 200.74,671.754 212.541,636.421 C217.595,644.906 222.506,652.749 228.188,660.065 C245.42,682.249 266.714,700.064 289.041,716.784 C303.166,727.362 317.689,737.445 330.563,749.601 C332.437,751.371 334.092,751.721 336.254,750.083 C356.656,734.624 380.707,727.843 404.886,721.456 C436.392,713.134 468.525,707.389 499.885,698.462 C527.044,690.731 553.499,681.368 576.715,664.661 C601.749,646.645 617.154,622.722 621.13,591.883 C621.589,588.329 622.655,587.588 626.129,588.791 C642.003,594.287 658.051,599.29 673.848,604.995 C679.027,606.866 682.048,606.017 685.127,601.573 C690.28,594.134 690.569,594.225 696.934,600.772 C724.451,629.072 743.809,662.352 756.98,699.394 C757.747,701.55 758.43,702.992 754.985,703.817 C712.668,713.953 672.067,729.424 631.22,744.103 C627.754,745.348 626.071,744.903 623.812,742.051 C617.095,733.569 609.847,725.496 604.451,716.04 C603.188,713.826 601.523,712.64 599.18,713.933 C596.726,715.285 597.177,717.425 598.357,719.54 C603.584,728.909 610.486,737.047 617.343,745.2 C618.91,747.064 619.772,748.355 618.035,750.675 C616.437,752.81 616.081,755.544 615.895,758.259 C615.136,769.303 617.216,779.807 621.862,789.796 C627.391,801.686 635.811,809.331 649.914,807.675 C655.285,807.044 658.387,808.701 660.558,813.929 C663.035,819.895 666.694,825.372 671.137,830.196 C677.035,836.597 681.484,835.914 684.872,827.797 C686.631,823.581 687.733,819.09 689.285,814.245" fill="#DF1F00"/>
    <path d="M179.752,560.509 C172.561,541.845 173.229,523.656 177.532,505.342 C182.774,483.036 192.619,462.447 201.404,441.462 C204.16,434.879 206.856,428.271 209.93,420.826 C216.682,442.304 230.48,457.437 249.242,468.883 C242.454,474.957 235.781,480.814 229.258,486.834 C227.146,488.783 223.705,490.334 224.382,493.833 C225.093,497.508 229,497.256 231.703,498.034 C249.954,503.284 268.486,505.547 288.107,502.377 C283.499,511.358 280.223,520.268 279.702,529.934 C279.36,536.261 279.23,542.584 281.802,548.601 C282.789,550.91 284.026,552.826 286.977,552.117 C307.244,547.246 325.941,539.576 339.382,522.586 C342.573,518.552 345.353,514.24 348.109,509.064 C355.8,521.626 364.726,532.418 374.915,542.15 C384.811,551.602 395.151,560.505 407.414,566.826 C415.917,571.209 416.198,571.033 422.842,564.514 C433.541,554.018 444.861,544.156 454.993,533.082 C458.824,528.895 461.113,522.58 465.258,519.923 C468.801,517.652 475.138,522.363 480.543,522.252 C489.802,522.062 499.155,520.785 507.076,516.221 C523.222,506.918 541.005,503.582 558.708,499.212 C590.681,491.32 619.44,476.811 643.669,454.068 C653.809,444.548 662.379,433.761 669.575,421.869 C670.421,420.471 671.254,419.064 672.74,416.579 C673.094,425.092 672.458,432.502 673.955,439.774 C674.728,443.53 675.594,447.238 677.085,450.776 C683.306,465.532 694.315,469.113 709.898,461.132 C712.488,469.445 713.622,477.959 714.936,486.43 C721.562,529.121 706.147,564.772 679.715,596.952 C677.9,599.162 676.387,598.236 674.499,597.6 C657.348,591.825 640.188,586.075 623.02,580.349 C616.6,578.207 615.657,578.957 614.992,585.761 C611.662,619.816 594.593,645.255 566.041,663.41 C543.189,677.942 517.901,686.641 491.924,693.273 C460.034,701.414 427.867,708.47 395.965,716.569 C374.821,721.937 354.211,728.983 335.986,741.537 C334.584,742.503 333.613,742.782 332.125,741.473 C310.346,722.321 285.698,706.799 263.988,687.542 C237.756,664.273 216.726,637.51 206.543,603.325 C197.443,572.78 197.976,541.923 203.598,510.906 C203.895,509.27 204.127,507.613 204.566,506.015 C205.227,503.614 204.904,501.509 202.391,500.673 C199.761,499.798 198.458,501.565 197.649,503.841 C194.427,512.913 191.096,521.947 187.959,531.049 C184.712,540.47 182.148,550.099 179.752,560.509" fill="#FEFEFE"/>
    <path d="M420.191,1020.91 C404.11,1021.77 389.186,1020.53 374.256,1020.53 C351.609,1020.52 328.995,1019.4 306.391,1018.24 C294.772,1017.65 283.198,1016.23 271.59,1015.36 C268.258,1015.11 266.654,1012.85 264.913,1010.66 C249.328,991.066 235.659,970.19 223.502,948.314 C215.738,934.345 208.632,920.059 202.332,904.562 C209.635,905.696 216.415,906.68 223.171,907.81 C246.635,911.735 270.262,914.308 293.931,916.576 C328.4,919.878 362.935,921.815 397.551,922.872 C423.707,923.671 449.856,923.767 475.987,923.177 C504.422,922.534 532.847,921 561.185,918.354 C610.243,913.773 658.89,906.618 706.76,894.702 C713.785,892.953 713.73,892.935 711.914,899.972 C702.936,934.743 694.026,969.532 684.993,1004.29 C683.574,1009.75 683.012,1016.31 679.568,1020.12 C676.059,1023.99 669.211,1021.14 663.844,1021.54 C645.722,1022.9 627.555,1022.2 609.411,1022.54 C585.101,1022.99 560.774,1022.85 536.478,1023.68 C514.829,1024.43 493.183,1024.19 471.538,1024.58 C462.055,1024.75 452.569,1024.94 443.096,1025.39 C439.353,1025.56 436.434,1024.43 433.532,1022.16 C418.284,1010.23 403.876,997.417 391.016,982.912 C390.132,981.914 389.197,980.962 388.313,979.965 C386.664,978.103 384.555,977.308 382.604,978.953 C380.512,980.717 381.389,982.89 383.025,984.64 C389.617,991.694 395.86,999.08 403.119,1005.5 C408.588,1010.33 413.962,1015.28 420.191,1020.91" fill="#DF1F00"/>
    <path d="M486.953,450.712 C473.957,447.889 460.91,445.576 447.571,444.887 C434.043,444.187 420.63,445.116 407.214,446.533 C405.248,446.741 403.395,447.228 401.685,445.44 C400.347,444.042 398.573,444.394 397.249,445.776 C396.117,446.958 395.667,448.516 396.752,449.867 C400.36,454.353 397.358,456.904 393.999,459.103 C385.207,464.86 375.245,467.54 365.076,469.457 C357.566,470.873 349.999,472.376 342.329,470.474 C335.496,468.78 329.623,465.486 325.585,459.559 C322.395,454.876 322.802,450.998 326.893,447.105 C328.907,445.188 330.575,443.207 328.273,440.818 C325.881,438.336 323.109,440.018 321.957,442.121 C318.526,448.388 313.486,447.656 307.693,446.836 C299.697,445.705 291.848,447.768 284.054,449.477 C282.157,447.369 282.359,444.509 281.41,442.054 C277.588,432.167 271.033,425.369 260.208,423.9 C248.947,422.372 240.557,427.172 234.504,436.565 C233.102,438.741 232.65,441.66 229.875,442.831 C219.067,430.115 213.136,415.795 216.093,398.846 C219.057,381.862 218.135,364.675 219.125,347.592 C219.88,334.556 219.541,334.531 231.5,329.541 C233.796,328.583 236.116,327.682 238.943,326.547 C237.361,334.342 236.809,341.819 239.041,349.245 C242.51,360.788 255.859,368.307 267.535,365.24 C272.126,364.034 274.929,361.398 278.535,354.776 C281.563,356.296 284.497,358.044 287.92,358.774 C298.05,360.934 307.725,355.746 310.86,345.927 C311.703,343.286 312.301,342.178 315.496,342.683 C329.437,344.89 339.681,333.568 336.612,319.593 C335.125,312.824 331.542,307.022 327.353,300.771 C366.23,294.204 404.549,295.084 443.442,301.727 C439.795,306.676 436.689,311.308 434.91,316.742 C429.486,333.302 437.822,346.895 455.122,349.518 C460.98,350.406 466.783,350.325 472.307,348.116 C474.559,347.215 475.327,347.767 476.56,349.638 C486.323,364.447 507.423,368.548 522.399,358.411 C525.294,356.452 526.523,356.297 529.068,359.103 C542.574,373.994 567.995,365.945 575.669,355.255 C578.016,351.986 578.169,348.11 578.376,343.468 C588.68,348.129 598.665,352.518 608.54,357.142 C629.909,367.147 650.887,377.925 671.703,389.037 C675.387,391.004 675.587,392.652 674.188,396.243 C658.324,436.954 628.388,463.582 589.461,481.211 C575.646,487.467 561.181,491.853 546.368,495.073 C545.575,495.245 544.452,496.179 543.946,494.752 C543.851,494.485 544.782,493.855 545.24,493.393 C545.214,489.316 548.249,488.736 551.255,488.161 C560.381,486.416 568.758,483.024 576.122,477.231 C588.041,467.855 588.959,453.793 578.328,443.096 C573.269,438.006 567.067,434.759 560.412,432.59 C544.463,427.393 528.397,427.244 512.382,432.529 C503.179,435.567 495.042,440.134 489.555,448.494 C488.91,449.476 488.141,450.35 486.953,450.712" fill="#FFEBD3"/>
    <path d="M365.138,229.924 C422.003,230.434 477.278,240.607 531.307,257.823 C581.935,273.956 629.935,295.686 673.345,326.741 C695.939,342.904 716.152,361.549 733.169,383.683 C739.031,391.307 740.93,398.886 739.357,408.243 C736.998,422.273 733.372,435.832 727.349,448.714 C726.018,451.561 724.401,454.307 722.626,456.901 C721.612,458.382 720.327,461.238 718.367,459.924 C716.326,458.557 715.286,455.909 717.198,452.952 C723.097,443.83 727.652,434.048 730.414,423.508 C733.964,409.966 734.474,396.548 728.085,383.589 C721.634,370.506 712.341,367.039 698.844,372.66 C692.648,375.24 687.118,378.964 682.054,383.317 C680.278,384.845 678.976,385.033 676.885,383.898 C645.045,366.624 612.668,350.44 579.298,336.3 C577.852,335.688 576.779,334.923 576.209,333.348 C573.159,324.921 567.631,318.22 560.441,313.196 C534.619,295.155 506.196,285.388 474.34,287.4 C467.115,287.856 460.266,290.061 454.059,293.768 C451.395,295.359 448.958,295.593 446.042,295.078 C405.53,287.922 364.958,287.056 324.327,294.111 C322.705,294.392 321.226,294.714 319.619,293.515 C305.652,283.092 290.771,283.778 275.771,290.659 C263.678,296.206 253.018,303.848 245.232,314.904 C243.973,316.691 242.36,317.534 240.519,318.304 C231.019,322.271 221.434,326.053 212.072,330.324 C207.75,332.295 205.431,330.61 203.589,327.184 C200.033,320.572 200.542,313.622 202.671,306.804 C208.993,286.564 222.099,271.375 239.196,259.523 C259.437,245.491 282.549,238.798 306.463,234.528 C325.857,231.064 345.461,229.968 365.138,229.924" fill="#FEFEFE"/>
    <path d="M758.665,849.605 C758.035,854.665 756.707,858.736 755.18,862.77 C751.937,871.337 746.688,876.808 737.169,879.479 C693.362,891.766 648.936,900.706 603.839,906.552 C549.44,913.603 494.797,916.58 439.982,916.577 C385.016,916.575 330.188,913.772 275.543,907.669 C243.784,904.122 212.142,899.958 180.978,892.589 C174.098,890.961 169.84,887.329 167.111,881.149 C162.078,869.755 158.654,858.063 159.892,845.411 C160.112,843.16 160.176,841.509 163.404,843.057 C182.003,851.981 202.014,856.328 222.049,860.375 C270.118,870.085 318.776,874.886 367.718,876.897 C427.847,879.368 487.856,877.671 547.766,871.687 C601.981,866.271 655.609,857.465 708.662,845.14 C711.592,844.46 713.254,845.074 715.129,847.064 C719.141,851.322 723.63,855.024 728.885,857.704 C738.271,862.491 746.848,861.295 754.542,854.065 C755.85,852.836 756.989,851.429 758.665,849.605" fill="#FEFEFE"/>
    <path d="M768.182,828.419 C775.742,836.464 781.383,845.847 786.999,855.26 C793.982,866.965 799.078,879.688 806.736,891.046 C821.916,913.558 843.382,924.682 869.977,927.575 C888.028,929.539 905.668,927.094 923.411,924.633 C935.212,922.997 947.132,922.484 958.949,920.674 C977.011,917.908 993.477,911.276 1009.02,902.032 C1023.49,893.421 1036.63,883.033 1048.75,871.342 C1049.7,870.421 1050.57,869.356 1052.11,869.484 C1043.19,882.82 1032.34,894.547 1021.11,905.875 C984.63,942.659 942.041,969.555 892.31,984.794 C863.622,993.585 834.401,998.57 804.32,997.235 C768.89,995.663 736.052,985.504 705.759,967.023 C703.109,965.406 702.629,963.715 703.358,960.942 C709.145,938.926 714.909,916.902 720.508,894.838 C721.271,891.832 722.747,890.466 725.649,889.738 C731.447,888.284 737.098,886.209 742.924,884.906 C750.412,883.233 755.184,878.525 758.564,872.083 C764.478,860.814 767.497,848.86 766.44,836.067 C766.208,833.267 767.196,830.874 768.182,828.419" fill="#D5D3D0"/>
    <path d="M234.781,491.142 C252.074,475.743 268.905,460.61 291.844,455.051 C299.076,453.299 306.347,453.285 313.658,454.489 C315.032,454.715 316.089,455.06 316.796,456.497 C324.792,472.769 335.698,479.468 353.129,478.203 C366.129,477.26 378.815,474.518 390.708,468.974 C397.049,466.018 403.485,462.948 405.46,455.206 C405.81,453.831 406.907,453.642 408.144,453.495 C440.843,449.63 472.947,451.058 503.597,464.581 C515.767,469.951 526.462,477.475 534.974,487.846 C536,489.096 538.07,490.249 535.379,492.122 C519.869,502.926 503.939,512.788 484.579,514.976 C477.554,515.771 471,514.304 465.272,509.977 C463.492,508.633 461.774,507.127 459.485,508.621 C457.338,510.022 458.441,511.907 458.654,513.913 C459.005,517.211 456.636,519.791 454.732,522.267 C446.879,532.482 437.199,540.943 427.978,549.841 C424.862,552.847 421.467,555.596 418.605,558.822 C415.68,562.121 413.076,562.273 409.37,559.984 C385.698,545.366 366.437,526.476 352.572,502.237 C351.399,500.187 350.996,497.206 347.609,497.467 C344.577,497.701 344.281,500.456 343.383,502.452 C332.977,525.564 314.291,537.971 290.414,543.902 C287.073,544.732 287.205,542.908 286.965,540.865 C285.295,526.674 288.91,513.845 296.946,502.16 C297.511,501.338 298.164,500.576 298.788,499.796 C300.127,498.122 300.96,496.255 299.539,494.348 C298.244,492.609 296.309,493.01 294.493,493.538 C275.138,499.157 255.96,497.002 236.847,492.207 C236.386,492.091 235.977,491.767 234.781,491.142" fill="#FEFEFE"/>
    <path d="M659.926,800.954 C656.764,800.954 653.576,800.692 650.444,801.002 C640.051,802.033 633.286,797.16 628.967,788.176 C624.429,778.734 621.876,768.876 622.899,758.288 C623.138,755.817 623.791,754.088 626.566,753.105 C666.487,738.963 706.094,723.888 747.079,712.939 C753.995,711.092 760.993,709.632 768.094,708.667 C771.609,708.189 773.709,708.988 775.245,712.813 C782.302,730.389 790.094,747.688 793.498,766.498 C794.822,773.815 794.204,775.438 787.611,778.922 C774.338,785.936 759.75,788.73 745.207,791.434 C717.022,796.675 688.574,799.685 659.926,800.954" fill="#FEFEFE"/>
    <path d="M44.994,716.481 C40.348,714.719 35.677,713.023 31.063,711.18 C25.422,708.926 22.213,704.382 19.989,698.99 C15.935,689.161 14.988,678.725 14.148,668.293 C12.99,653.894 13.408,639.387 11.122,625.061 C10.621,621.922 10.173,618.665 8.528,616.029 C5.875,611.778 7.412,608.483 9.966,605.134 C15.606,597.742 22.996,592.344 30.662,587.345 C54.039,572.103 79.51,561.393 105.992,552.922 C107.628,552.399 109.279,551.211 110.184,554.239 C112.413,561.698 118.125,565.823 124.971,568.677 C126.482,571.663 123.806,572.919 122.337,574.383 C112.901,583.787 103.549,593.256 95.183,603.655 C80.594,621.79 68.45,641.101 65.816,664.936 C65.05,671.871 64.788,678.838 63.538,685.747 C61.575,696.592 56.459,705.744 49.555,714.064 C48.415,715.437 47.183,716.944 44.994,716.481" fill="#FEFEFD"/>
    <path d="M442.229,1031.45 C458.151,1031.45 472.898,1031.6 487.641,1031.42 C539.395,1030.77 591.147,1030.02 642.899,1029.26 C655.707,1029.08 668.518,1028.85 681.317,1028.37 C685.115,1028.22 686.262,1029.58 686.257,1033.16 C686.245,1042.22 683.774,1050.51 679.25,1058.28 C677.617,1061.09 675.482,1062.32 672.007,1062.37 C624.73,1063.11 577.452,1062.88 530.182,1062.17 C510.578,1061.87 490.951,1061.4 471.382,1059.67 C465.521,1059.15 460.903,1057.14 457.114,1052.71 C451.828,1046.53 447.23,1039.89 442.229,1031.45" fill="#FEFEFE"/>
    <path d="M485.035,293.621 C510.629,295.875 535.405,303.099 556.841,319.421 C565.287,325.853 571.447,333.978 571.24,345.457 C571.183,348.657 570.179,351.175 567.781,353.369 C560.987,359.585 547.822,362.036 539.69,358.362 C535.572,356.502 532.835,353.303 530.82,349.282 C528.701,345.054 526.655,344.907 523.315,348.407 C514.258,357.898 500.003,359.69 489.142,352.672 C485.26,350.163 482.297,346.922 481.021,342.324 C479.636,337.337 478.341,336.951 473.643,339.589 C464.334,344.817 455.134,344.242 446.377,338.387 C440.712,334.599 438.999,329.33 440.613,322.707 C444.467,306.887 456.756,296.521 474.161,294.489 C477.457,294.104 480.78,293.953 485.035,293.621" fill="#FEFEFE"/>
    <path d="M374.234,1057.61 C353.272,1056.51 332.329,1055.66 311.407,1054.41 C293.817,1053.37 276.161,1052.65 258.898,1048.72 C247.354,1046.09 242.769,1029.4 250.955,1020.74 C252.328,1019.29 253.769,1019.27 255.48,1019.59 C283.376,1024.89 311.664,1025.43 339.907,1026.64 C369.004,1027.89 398.125,1027.59 427.231,1028.22 C431.135,1028.31 433.212,1030.46 435.079,1033.36 C438.852,1039.23 442.677,1045.07 446.516,1050.9 C447.416,1052.26 448.669,1053.36 447.644,1055.33 C446.622,1057.29 445.116,1057.64 443.132,1057.64 C420.166,1057.6 397.2,1057.61 374.234,1057.61" fill="#FEFEFE"/>
    <path d="M121.682,622.154 C119.723,614.32 124.196,610.404 130.418,607.405 C146.431,599.689 163.626,596.002 180.884,592.537 C184.955,591.72 189.09,591.215 193.163,590.401 C195.245,589.985 196.127,590.642 196.565,592.692 C199.001,604.089 202.598,615.12 207.444,625.721 C208.18,627.331 207.68,628.552 207.208,629.98 C204.507,638.17 201.771,646.352 199.27,654.604 C198.666,656.594 197.661,657.656 195.859,658.462 C179.204,665.907 162.523,673.272 145.45,679.746 C140.729,681.535 138.187,680.503 135.981,676.231 C129.037,662.778 125.541,648.308 123.046,633.532 C122.411,629.77 122.127,625.948 121.682,622.154" fill="#FEFEFE"/>
    <path d="M794.738,139.227 C809.277,139.177 820.179,143.476 828.898,152.559 C845.216,169.559 843.194,195.019 824.583,209.564 C799.396,229.248 761.745,217.109 754.687,186.963 C752.895,179.313 753.754,171.834 756.746,164.504 C757.766,162.005 758.993,161.398 761.544,161.592 C771.331,162.338 774.643,158.574 772.223,149.357 C771.594,146.962 772.473,146.081 774.259,145.1 C781.247,141.264 788.638,139.063 794.738,139.227" fill="#FEFEFE"/>
    <path d="M244.528,338.17 C244.449,329.57 247.895,322.26 253.337,315.96 C262.444,305.415 273.697,297.89 287.16,294.087 C300.474,290.326 311.75,293.976 320.795,304.412 C324.873,309.116 327.93,314.437 329.528,320.478 C330.855,325.494 330.16,330.175 325.848,333.556 C321.615,336.875 316.985,336.783 312.292,334.365 C306.306,331.28 305.066,331.998 305.039,338.496 C304.992,349.421 295.524,355.3 285.664,350.521 C283.091,349.273 281.021,347.364 278.885,345.499 C275.792,342.799 273.402,343.647 272.424,347.594 C270.215,356.519 268.206,358.915 262.428,358.855 C256.103,358.79 247.235,354.326 245.886,347.507 C245.272,344.4 244.516,341.352 244.528,338.17" fill="#FEFEFE"/>
    <path d="M44.994,716.481 C55.797,706.855 61.327,694.604 63.059,680.419 C64.402,669.417 64.576,658.251 68.098,647.559 C73.658,630.682 83.372,616.282 94.366,602.596 C103.138,591.675 113.003,581.784 122.946,571.962 C123.892,571.028 124.974,570.191 124.971,568.678 C125.664,568.841 126.358,569.005 127.052,569.168 C129.099,570.39 131.421,570.493 134.344,570.683 C128.1,579.122 123.019,587.759 118.327,596.615 C104.335,623.028 94.723,651.169 85.854,679.592 C83.501,687.133 80.522,694.485 78.965,702.269 C75.659,709.649 73.923,717.636 70.189,724.857 C67.161,730.712 67.143,730.838 61.52,727.354 C55.915,723.882 51.083,719.226 44.994,716.481" fill="#D5D3D0"/>
    <path d="M680.061,422.762 C679.54,414.056 681.12,405.53 682.203,396.949 C682.718,392.869 684.55,389.957 687.884,387.585 C692.229,384.493 696.525,381.382 701.467,379.29 C710.837,375.323 717.575,377.697 721.814,386.64 C727.243,398.094 726.772,409.852 723.63,421.719 C721.709,428.974 719.003,435.987 715.1,442.385 C710.048,450.668 702.351,455.215 692.809,456.779 C689.251,457.363 687.646,454.882 686.091,452.581 C682.059,446.617 680.748,439.738 680.112,432.744 C679.812,429.442 680.061,426.091 680.061,422.762" fill="#FFEBD3"/>
    <path d="M486.953,450.712 C492.281,439.342 502.357,434.077 513.575,430.815 C535.082,424.559 555.918,425.949 575.036,438.523 C589.077,447.759 591.353,463.756 580.076,475.593 C573.61,482.38 565.003,486.173 555.817,488.584 C552.121,489.554 547.2,488.415 545.24,493.393 C546.562,489.296 542.89,487.363 541.321,484.547 C540.48,483.037 539.156,481.795 538.05,480.432 C538.37,476.276 541.981,476.835 544.422,476.446 C549.828,475.583 554.662,473.591 559.058,470.465 C568.203,463.962 568.166,453.342 558.631,447.559 C544.885,439.222 530.536,439.646 516.158,445.963 C512.584,447.533 510.105,450.547 507.888,453.733 C506.899,455.153 506.188,457.14 503.778,456.569 C498.17,454.617 492.561,452.665 486.953,450.712" fill="#FFD7D5"/>
    <path d="M211.21,375.552 C211.283,398.535 203.362,419.395 194.418,440.022 C193.148,442.95 192.134,441.916 190.568,440.594 C181.116,432.615 175.527,422.498 174.3,410.207 C173.453,401.724 174.184,393.249 176.409,384.998 C180.189,370.978 190.558,364.813 203.933,362.515 C211.404,361.232 211.411,361.343 211.218,369.073 C211.165,371.231 211.21,373.392 211.21,375.552" fill="#FFEBD3"/>
    <path d="M503.778,456.569 C504.925,456.119 505.622,455.261 506.176,454.177 C508.691,449.254 512.501,445.531 517.663,443.692 C532.181,438.522 546.497,437.948 559.996,446.83 C569.451,453.052 569.702,464.751 560.461,471.167 C555.695,474.476 550.678,477.216 544.574,477.677 C542.403,477.84 539.418,477.665 538.05,480.432 C528.438,469.875 516.485,462.681 503.778,456.569" fill="#FFCCD5"/>
    <path d="M229.875,442.831 C232.753,436.857 235.741,431.106 241.499,427.105 C250.307,420.984 259.733,420.491 268.723,425.124 C278.176,429.995 283.646,438.398 284.054,449.477 C274.857,453.208 265.911,457.42 257.791,463.21 C256.686,463.997 255.736,464.491 254.25,463.582 C245.03,457.935 236.292,451.756 229.875,442.831" fill="#FFCFD5"/>
    <path d="M195.526,666.449 C193.87,672.283 192.402,677.142 191.114,682.049 C187.067,697.467 183.03,712.889 179.136,728.345 C178.426,731.163 177.778,731.89 175.52,729.538 C164.081,717.62 155.717,703.737 149.137,688.686 C148.386,686.967 148.601,685.999 150.511,685.3 C165.456,679.836 179.939,673.235 195.526,666.449" fill="#DF1F00"/>
    <path d="M123.046,602.446 C124.378,600.082 125.71,597.718 127.042,595.354 C130.439,600.317 129.976,601.139 123.046,602.446" fill="#EDECEB"/>
    <path d="M985.797,836.556 C992.466,826.334 998.467,816.979 1003.86,807.248 C1017.84,782.024 1027.97,755.567 1031.16,726.649 C1034.14,699.622 1030.43,673.354 1023.14,647.433 C1016.34,623.283 1007.45,599.852 998.999,576.099 C1002.18,581.28 1005.41,586.427 1008.52,591.648 C1023.32,616.5 1038.66,641.044 1052.05,666.703 C1060.46,682.811 1068.07,699.551 1069.57,717.763 C1071.07,735.877 1071.86,754.335 1064.15,771.747 C1060.95,778.981 1056.49,785.453 1051.36,791.272 C1033.94,811.02 1013.33,826.436 988.488,835.786 C988.04,835.955 987.565,836.054 985.797,836.556" fill="#D5D3D0"/>
    <path d="M340.331,811.138 C340.283,828.848 326.634,842.514 309.066,842.444 C291.698,842.374 277.884,828.355 277.923,810.838 C277.961,793.42 292.013,779.443 309.36,779.567 C326.928,779.693 340.379,793.405 340.331,811.138" fill="#2F201B"/>
    <path d="M457.829,407.283 C457.896,406.122 457.912,404.957 458.051,403.807 C459.119,394.987 465.815,388.039 473.627,387.613 C481.44,387.187 488.014,392.875 490.285,401.844 C491.247,405.648 491.235,409.348 490.208,413.129 C487.805,421.98 480.977,427.531 473.156,426.866 C465.485,426.214 459.06,419.379 458.048,410.762 C457.913,409.611 457.903,408.445 457.829,407.283" fill="#2F201B"/>
    <path d="M271.476,405.785 C271.795,403.845 271.942,401.666 272.527,399.611 C275.031,390.821 282.908,385.228 290.597,386.64 C299.116,388.203 305.534,397.439 304.829,407.325 C304.678,409.451 304.232,411.61 303.562,413.634 C301.001,421.376 294.407,426.211 287.286,425.753 C280.045,425.287 273.887,419.502 272.159,411.422 C271.779,409.647 271.712,407.805 271.476,405.785" fill="#2F201B"/>
    <path d="M309.483,786.612 C322.893,786.775 333.831,798.033 333.55,811.384 C333.267,824.842 322.039,835.714 308.707,835.44 C295.596,835.171 284.822,824.055 284.879,810.856 C284.937,797.454 296.105,786.45 309.483,786.612" fill="#FEFEFE"/>
  </g>
</svg>
